  0
SECTION
  2
HEADER
  9
$ACADVER
  1
AC1009
  9
$INSBASE
 10
0.0
 20
0.0
 30
0.0
  9
$EXTMIN
 10
0.0
 20
0.0
 30
0.0
  9
$EXTMAX
 10
0.0
 20
0.0
 30
0.0
  0
ENDSEC
  0
SECTION
  2
TABLES
  0
TABLE
  2
VPORT
 70
0
  0
ENDTAB
  0
TABLE
  2
LTYPE
 70
1
  0
LTYPE
  2
CONTINUOUS
 70
0
  3
Solid line
 72
65
 73
0
 40
0.0
  0
ENDTAB
  0
TABLE
  2
LAYER
 70
1
  0
LAYER
  2
0
 70
64
 62
7
  6
continuous
  0
ENDTAB
  0
TABLE
  2
STYLE
 70
1
  0
STYLE
  2
STANDARD
 70
0
 40
0
 41
1.0
 50
0.0
 71
0
 42
1
 3
ARIAL.TTF
 4

  0
ENDTAB
  0
TABLE
  2
VIEW
 70
0
  0
ENDTAB
  0
ENDSEC
  0
SECTION
  2
BLOCKS
  0
BLOCK
  8
0
  2
ARRAY001
 70
0
 10
0.0
 20
0.0
 30
0.0
  3
ARRAY001
  0
POLYLINE
  8
0
 62
0
 70
1
 66
1
 10
0.0
 20
0.0
 30
0.0
  0
VERTEX
  8
0
 10
-9.3149157926
 20
3.44415089128
 42
0.19891236738
  0
VERTEX
  8
0
 10
-9.3149157926
 20
-3.44415089129
  0
VERTEX
  8
0
 10
-1.0
 20
6.79782332407e-16
  0
SEQEND
  8
0
  0
CIRCLE
  8
0
 62
0
 10
-8.0
 20
1.93134397364e-12
 30
0.0
 40
3.5954483618e-17
  0
CIRCLE
  8
0
 62
0
 10
-8.0
 20
1.93134397364e-12
 30
0.0
 40
0.05
  0
POLYLINE
  8
0
 62
0
 70
1
 66
1
 10
0.0
 20
0.0
 30
0.0
  0
VERTEX
  8
0
 10
-9.02202257379
 20
-4.15125767248
 42
0.19891236738
  0
VERTEX
  8
0
 10
-4.15125767247
 20
-9.02202257379
  0
VERTEX
  8
0
 10
-0.707106781187
 20
-0.707106781187
  0
SEQEND
  8
0
  0
CIRCLE
  8
0
 62
0
 10
-5.65685424949
 20
-5.65685424949
 30
0.0
 40
3.5954483618e-17
  0
CIRCLE
  8
0
 62
0
 10
-5.65685424949
 20
-5.65685424949
 30
0.0
 40
0.05
  0
POLYLINE
  8
0
 62
0
 70
1
 66
1
 10
0.0
 20
0.0
 30
0.0
  0
VERTEX
  8
0
 10
-3.44415089128
 20
-9.3149157926
 42
0.19891236738
  0
VERTEX
  8
0
 10
3.44415089129
 20
-9.3149157926
  0
VERTEX
  8
0
 10
-7.90804634869e-16
 20
-1.0
  0
SEQEND
  8
0
  0
CIRCLE
  8
0
 62
0
 10
-1.93189908515e-12
 20
-8.0
 30
0.0
 40
3.5954483618e-17
  0
CIRCLE
  8
0
 62
0
 10
-1.93189908515e-12
 20
-8.0
 30
0.0
 40
0.05
  0
POLYLINE
  8
0
 62
0
 70
1
 66
1
 10
0.0
 20
0.0
 30
0.0
  0
VERTEX
  8
0
 10
4.15125767248
 20
-9.02202257379
 42
0.19891236738
  0
VERTEX
  8
0
 10
9.02202257379
 20
-4.15125767247
  0
VERTEX
  8
0
 10
0.707106781187
 20
-0.707106781187
  0
SEQEND
  8
0
  0
CIRCLE
  8
0
 62
0
 10
5.65685424949
 20
-5.65685424949
 30
0.0
 40
3.5954483618e-17
  0
CIRCLE
  8
0
 62
0
 10
5.65685424949
 20
-5.65685424949
 30
0.0
 40
0.05
  0
POLYLINE
  8
0
 62
0
 70
1
 66
1
 10
0.0
 20
0.0
 30
0.0
  0
VERTEX
  8
0
 10
9.3149157926
 20
-3.44415089128
 42
0.19891236738
  0
VERTEX
  8
0
 10
9.3149157926
 20
3.44415089129
  0
VERTEX
  8
0
 10
1.0
 20
-8.02247012322e-16
  0
SEQEND
  8
0
  0
CIRCLE
  8
0
 62
0
 10
8.0
 20
-1.93191052753e-12
 30
0.0
 40
3.5954483618e-17
  0
CIRCLE
  8
0
 62
0
 10
8.0
 20
-1.93191052753e-12
 30
0.0
 40
0.05
  0
POLYLINE
  8
0
 62
0
 70
1
 66
1
 10
0.0
 20
0.0
 30
0.0
  0
VERTEX
  8
0
 10
9.02202257379
 20
4.15125767248
 42
0.19891236738
  0
VERTEX
  8
0
 10
4.15125767247
 20
9.02202257379
  0
VERTEX
  8
0
 10
0.707106781187
 20
0.707106781187
  0
SEQEND
  8
0
  0
CIRCLE
  8
0
 62
0
 10
5.65685424949
 20
5.65685424949
 30
0.0
 40
3.5954483618e-17
  0
CIRCLE
  8
0
 62
0
 10
5.65685424949
 20
5.65685424949
 30
0.0
 40
0.05
  0
POLYLINE
  8
0
 62
0
 70
1
 66
1
 10
0.0
 20
0.0
 30
0.0
  0
VERTEX
  8
0
 10
3.44415089128
 20
9.3149157926
 42
0.19891236738
  0
VERTEX
  8
0
 10
-3.44415089129
 20
9.3149157926
  0
VERTEX
  8
0
 10
9.01826937332e-16
 20
1.0
  0
SEQEND
  8
0
  0
CIRCLE
  8
0
 62
0
 10
1.93289828587e-12
 20
8.0
 30
0.0
 40
3.5954483618e-17
  0
CIRCLE
  8
0
 62
0
 10
1.93289828587e-12
 20
8.0
 30
0.0
 40
0.05
  0
POLYLINE
  8
0
 62
0
 70
1
 66
1
 10
0.0
 20
0.0
 30
0.0
  0
VERTEX
  8
0
 10
-4.15125767248
 20
9.02202257379
 42
0.19891236738
  0
VERTEX
  8
0
 10
-9.02202257379
 20
4.15125767247
  0
VERTEX
  8
0
 10
-0.707106781187
 20
0.707106781187
  0
SEQEND
  8
0
  0
CIRCLE
  8
0
 62
0
 10
-5.65685424949
 20
5.65685424949
 30
0.0
 40
3.5954483618e-17
  0
CIRCLE
  8
0
 62
0
 10
-5.65685424949
 20
5.65685424949
 30
0.0
 40
0.05
  0
ENDBLK
  0
ENDSEC
  0
SECTION
  2
ENTITIES
  0
INSERT
  2
ARRAY001
  8
0
 10
0.0
 20
0.0
 30
0.0
  0
ENDSEC
  0
EOF
