  0
SECTION
  2
HEADER
  9
$ACADVER
  1
AC1009
  9
$INSBASE
 10
0.0
 20
0.0
 30
0.0
  9
$EXTMIN
 10
0.0
 20
0.0
 30
0.0
  9
$EXTMAX
 10
0.0
 20
0.0
 30
0.0
  0
ENDSEC
  0
SECTION
  2
TABLES
  0
TABLE
  2
VPORT
 70
0
  0
ENDTAB
  0
TABLE
  2
LTYPE
 70
1
  0
LTYPE
  2
CONTINUOUS
 70
0
  3
Solid line
 72
65
 73
0
 40
0.0
  0
ENDTAB
  0
TABLE
  2
LAYER
 70
1
  0
LAYER
  2
0
 70
64
 62
7
  6
continuous
  0
ENDTAB
  0
TABLE
  2
STYLE
 70
1
  0
STYLE
  2
STANDARD
 70
0
 40
0
 41
1.0
 50
0.0
 71
0
 42
1
 3
ARIAL.TTF
 4

  0
ENDTAB
  0
TABLE
  2
VIEW
 70
0
  0
ENDTAB
  0
ENDSEC
  0
SECTION
  2
BLOCKS
  0
BLOCK
  8
0
  2
ARRAY
 70
0
 10
0.0
 20
0.0
 30
0.0
  3
ARRAY
  0
POLYLINE
  8
0
 62
0
 70
1
 66
1
 10
0.0
 20
0.0
 30
0.0
  0
VERTEX
  8
0
 10
-20.4775906502
 20
7.6536686473
 42
0.19891236738
  0
VERTEX
  8
0
 10
-20.4775906502
 20
-7.6536686473
  0
VERTEX
  8
0
 10
-2.0
 20
1.17988343332e-14
  0
SEQEND
  8
0
  0
CIRCLE
  8
0
 62
0
 10
-18.5562876874
 20
5.95596461039e-10
 30
0.0
 40
1.95610352935e-16
  0
CIRCLE
  8
0
 62
0
 10
-18.5562876874
 20
5.95596461039e-10
 30
0.0
 40
0.05
  0
POLYLINE
  8
0
 62
0
 70
1
 66
1
 10
0.0
 20
0.0
 30
0.0
  0
VERTEX
  8
0
 10
-19.8918042126
 20
-9.06788220967
 42
0.19891236738
  0
VERTEX
  8
0
 10
-9.06788220967
 20
-19.8918042126
  0
VERTEX
  8
0
 10
-1.41421356237
 20
-1.41421356237
  0
SEQEND
  8
0
  0
CIRCLE
  8
0
 62
0
 10
-13.1212768579
 20
-13.121276857
 30
0.0
 40
1.95610352935e-16
  0
CIRCLE
  8
0
 62
0
 10
-13.1212768579
 20
-13.121276857
 30
0.0
 40
0.05
  0
POLYLINE
  8
0
 62
0
 70
1
 66
1
 10
0.0
 20
0.0
 30
0.0
  0
VERTEX
  8
0
 10
-7.6536686473
 20
-20.4775906502
 42
0.19891236738
  0
VERTEX
  8
0
 10
7.6536686473
 20
-20.4775906502
  0
VERTEX
  8
0
 10
-1.20208789381e-14
 20
-2.0
  0
SEQEND
  8
0
  0
CIRCLE
  8
0
 62
0
 10
-5.95598459441e-10
 20
-18.5562876874
 30
0.0
 40
1.95610352935e-16
  0
CIRCLE
  8
0
 62
0
 10
-5.95598459441e-10
 20
-18.5562876874
 30
0.0
 40
0.05
  0
POLYLINE
  8
0
 62
0
 70
1
 66
1
 10
0.0
 20
0.0
 30
0.0
  0
VERTEX
  8
0
 10
9.06788220967
 20
-19.8918042126
 42
0.19891236738
  0
VERTEX
  8
0
 10
19.8918042126
 20
-9.06788220967
  0
VERTEX
  8
0
 10
1.41421356237
 20
-1.41421356237
  0
SEQEND
  8
0
  0
CIRCLE
  8
0
 62
0
 10
13.121276857
 20
-13.1212768579
 30
0.0
 40
1.95610352935e-16
  0
CIRCLE
  8
0
 62
0
 10
13.121276857
 20
-13.1212768579
 30
0.0
 40
0.05
  0
POLYLINE
  8
0
 62
0
 70
1
 66
1
 10
0.0
 20
0.0
 30
0.0
  0
VERTEX
  8
0
 10
20.4775906502
 20
-7.6536686473
 42
0.19891236738
  0
VERTEX
  8
0
 10
20.4775906502
 20
7.6536686473
  0
VERTEX
  8
0
 10
2.0
 20
-1.2043763693e-14
  0
SEQEND
  8
0
  0
CIRCLE
  8
0
 62
0
 10
18.5562876874
 20
-5.95598482326e-10
 30
0.0
 40
1.95610352935e-16
  0
CIRCLE
  8
0
 62
0
 10
18.5562876874
 20
-5.95598482326e-10
 30
0.0
 40
0.05
  0
POLYLINE
  8
0
 62
0
 70
1
 66
1
 10
0.0
 20
0.0
 30
0.0
  0
VERTEX
  8
0
 10
19.8918042126
 20
9.06788220967
 42
0.19891236738
  0
VERTEX
  8
0
 10
9.06788220967
 20
19.8918042126
  0
VERTEX
  8
0
 10
1.41421356237
 20
1.41421356237
  0
SEQEND
  8
0
  0
CIRCLE
  8
0
 62
0
 10
13.1212768579
 20
13.121276857
 30
0.0
 40
1.95610352935e-16
  0
CIRCLE
  8
0
 62
0
 10
13.1212768579
 20
13.121276857
 30
0.0
 40
0.05
  0
POLYLINE
  8
0
 62
0
 70
1
 66
1
 10
0.0
 20
0.0
 30
0.0
  0
VERTEX
  8
0
 10
7.6536686473
 20
20.4775906502
 42
0.19891236738
  0
VERTEX
  8
0
 10
-7.6536686473
 20
20.4775906502
  0
VERTEX
  8
0
 10
1.2242923543e-14
 20
2.0
  0
SEQEND
  8
0
  0
CIRCLE
  8
0
 62
0
 10
5.95601346021e-10
 20
18.5562876874
 30
0.0
 40
1.95610352935e-16
  0
CIRCLE
  8
0
 62
0
 10
5.95601346021e-10
 20
18.5562876874
 30
0.0
 40
0.05
  0
POLYLINE
  8
0
 62
0
 70
1
 66
1
 10
0.0
 20
0.0
 30
0.0
  0
VERTEX
  8
0
 10
-9.06788220967
 20
19.8918042126
 42
0.19891236738
  0
VERTEX
  8
0
 10
-19.8918042126
 20
9.06788220967
  0
VERTEX
  8
0
 10
-1.41421356237
 20
1.41421356237
  0
SEQEND
  8
0
  0
CIRCLE
  8
0
 62
0
 10
-13.121276857
 20
13.1212768579
 30
0.0
 40
1.95610352935e-16
  0
CIRCLE
  8
0
 62
0
 10
-13.121276857
 20
13.1212768579
 30
0.0
 40
0.05
  0
ENDBLK
  0
ENDSEC
  0
SECTION
  2
ENTITIES
  0
INSERT
  2
ARRAY
  8
0
 10
0.0
 20
0.0
 30
0.0
  0
ENDSEC
  0
EOF
