%
M48
M72
T01C0.01181
T02C0.01200
T03C0.01575
T04C0.01600
T05C0.02000
T06C0.02362
T07C0.02953
T08C0.03150
T09C0.03346
T10C0.03937
T11C0.04134
T12C0.04331
T13C0.04400
%
T01
X187446Y173597
X192446Y173597
X114146Y251797
X110446Y251797
X110446Y255597
X114146Y255597
X98446Y273597
X85946Y274097
X167446Y275097
X172446Y275097
X176946Y275097
X176946Y293597
X172446Y293597
X167446Y293597
X86446Y357797
X67446Y203197
X286946Y372097
T02
X199846Y299197
X199346Y277697
X203846Y275197
X187346Y274697
X181846Y275197
X195346Y255697
X187346Y251697
X181846Y243697
X170346Y216197
X163846Y213697
X160846Y211197
X156846Y208697
X176846Y205697
X124346Y236697
X121346Y239697
X118346Y233697
X110346Y239697
X108346Y236697
X104346Y236697
X104346Y228697
X91846Y226697
X73346Y209697
X73346Y196697
X100346Y196697
X100346Y208697
X79246Y170697
X75746Y170697
X60746Y170697
X57246Y170697
X85746Y119197
X93746Y113697
X101246Y108697
X123746Y117397
X123746Y123197
X268346Y202697
X353346Y156697
X377346Y146197
X388346Y146197
X129846Y249697
X128346Y252697
X130846Y334697
X80346Y357697
T03
X209683Y297224
X209683Y292218
X209679Y287219
X209673Y282218
X209674Y277234
X209677Y272223
X209677Y267218
X209677Y262226
T04
X207846Y235197
X207346Y229697
X195346Y235697
X193346Y230697
X221346Y233697
X223846Y225697
X244346Y240197
X247346Y243697
X192346Y191197
X187346Y190197
X175346Y174697
X171346Y171697
X166846Y169697
X195846Y155197
X218346Y158197
X238846Y161197
X250346Y171697
X253846Y174197
X332346Y163697
X332346Y159697
X339346Y149697
X347346Y147697
X349346Y141697
X344846Y130197
X354846Y127697
X365346Y137197
X344346Y155697
X349846Y159697
X331846Y134197
X331846Y130197
X331846Y126197
X331846Y122197
X410346Y163697
X406346Y235697
X328346Y235697
X328346Y305697
X275846Y352697
X264346Y347697
X253346Y351697
X246346Y343697
X252346Y339697
X214846Y308697
X219346Y305697
X189846Y305197
X185846Y308697
X188846Y312197
X184846Y315697
X169346Y301697
X182346Y295697
X153346Y292697
X148846Y293197
X139346Y276197
X143846Y274197
X155846Y235697
X151346Y231197
X135346Y214197
X134846Y208197
X147846Y202697
X151346Y199197
X154846Y197197
X154846Y126197
X151346Y120197
X147346Y114197
X190346Y52697
X97346Y301697
X91346Y301697
X410346Y305697
T05
X317346Y293697
X317346Y288697
X317346Y283697
X317346Y278697
X307346Y278697
X307346Y283697
X307346Y288697
X307346Y293697
X287346Y293697
X287346Y288697
X277346Y288697
X277346Y293697
X277346Y283697
X277346Y278697
X287346Y278697
X287346Y283697
X287346Y223697
X287346Y218697
X287346Y213697
X277346Y213697
X277346Y218697
X277346Y223697
X277346Y208697
X287346Y208697
X307346Y208697
X307346Y213697
X307346Y218697
X307346Y223697
X317346Y223697
X317346Y218697
X317346Y213697
X317346Y208697
X317346Y153697
X317346Y148697
X317346Y143697
X317346Y138697
X307346Y138697
X307346Y143697
X307346Y148697
X307346Y153697
X327346Y153697
X327346Y148697
X327346Y143697
X327346Y138697
X286346Y138697
X286346Y143697
X286346Y148697
X286346Y153697
X277346Y153697
X277346Y148697
X277346Y143697
X277346Y138697
X268346Y138697
X268346Y143697
X268346Y148697
X268346Y153697
X287346Y348697
X287346Y353697
X287346Y358697
X287346Y363697
X307346Y363697
X307346Y358697
X307346Y353697
X307346Y348697
T06
X133346Y269697
X129346Y225697
X60346Y210697
X60346Y179697
T07
X369846Y153677
T08
X131205Y348343
X106992Y372555
X47346Y363697
X41992Y358382
T09
X30008Y209177
X30008Y194217
T10
X43346Y246697
X33346Y256697
X33346Y266697
X33346Y276697
X43346Y286697
X53346Y276697
X53346Y266697
X53346Y256697
X227346Y53697
X237346Y53697
X247346Y53697
X257346Y43697
X247346Y33697
X237346Y33697
X227346Y33697
X217346Y43697
X422346Y148697
X432346Y138697
X442346Y138697
X452346Y138697
X462346Y148697
X452346Y158697
X442346Y158697
X432346Y158697
X432346Y208697
X442346Y208697
X452346Y208697
X462346Y218697
X452346Y228697
X442346Y228697
X432346Y228697
X422346Y218697
X392346Y218697
X382346Y228697
X372346Y228697
X362346Y228697
X352346Y218697
X362346Y208697
X372346Y208697
X382346Y208697
X382346Y278697
X372346Y278697
X362346Y278697
X352346Y288697
X362346Y298697
X372346Y298697
X382346Y298697
X392346Y288697
X422346Y288697
X432346Y298697
X442346Y298697
X452346Y298697
X462346Y288697
X452346Y278697
X442346Y278697
X432346Y278697
X432346Y348697
X442346Y348697
X452346Y348697
X462346Y358697
X452346Y368697
X442346Y368697
X432346Y368697
X422346Y358697
T11
X369846Y138717
T12
X131834Y93412
X147859Y81981
T13
X156346Y374697
X166346Y374697
X176346Y374697
X186346Y374697
M30
